<svg version="1.1" id="Layer_1" xmlns="http://www.w3.org/2000/svg" xmlns:xlink="http://www.w3.org/1999/xlink" x="0px" y="0px"
	 width="100%" viewBox="0 0 1200 1200" enable-background="new 0 0 1200 1200" xml:space="preserve">
<path fill="#03E4FD" opacity="1.000000" stroke="none" 
	d="
M666.000000,1201.000000 
	C444.000000,1201.000000 222.500000,1201.000000 1.000000,1201.000000 
	C1.000000,801.000000 1.000000,401.000000 1.000000,1.000000 
	C401.000000,1.000000 801.000000,1.000000 1201.000000,1.000000 
	C1201.000000,401.000000 1201.000000,801.000000 1201.000000,1201.000000 
	C1022.833313,1201.000000 844.666687,1201.000000 666.000000,1201.000000 
M655.288086,199.852356 
	C609.533264,213.141602 575.989624,241.211945 555.066589,283.894073 
	C537.999451,318.710388 535.755005,355.142548 545.519531,392.460571 
	C554.219604,425.710632 571.017639,453.957916 598.464661,475.030670 
	C637.347961,504.883789 681.451782,514.190857 729.175659,505.046082 
	C823.769165,486.920227 864.326782,399.755890 852.448303,326.608063 
	C837.297852,233.311935 747.067627,175.736221 655.288086,199.852356 
M498.722229,669.211609 
	C501.991913,667.978271 505.332825,666.905151 508.520447,665.487427 
	C553.819641,645.339966 579.759277,597.463440 573.125671,546.341064 
	C565.063904,484.212341 503.653503,439.523926 442.162628,450.362976 
	C378.803986,461.531250 338.868469,521.618958 348.884766,579.147766 
	C353.302917,604.523743 362.882141,627.292053 382.117950,644.739136 
	C415.763153,675.255676 454.929871,681.960754 498.722229,669.211609 
M517.828674,953.199829 
	C514.284851,970.863098 510.740997,988.526367 507.197174,1006.189636 
	C504.811768,1000.115295 503.382629,994.141968 501.994476,988.159119 
	C497.931427,970.647705 493.946930,953.117432 489.733154,935.642395 
	C489.320831,933.932373 487.593689,931.278748 486.380585,931.224670 
	C477.764526,930.840820 469.123352,931.020264 460.282349,931.020264 
	C454.093445,956.436890 448.012299,981.410889 441.581818,1007.819641 
	C440.815796,1004.852295 440.370880,1003.429688 440.084869,1001.975769 
	C435.715057,979.764526 431.398346,957.542664 426.941559,935.348877 
	C426.634094,933.817810 425.362701,931.287598 424.463196,931.253784 
	C416.062469,930.937988 407.645050,931.066711 399.258728,931.066711 
	C399.172852,932.296997 399.008484,932.822388 399.122620,933.277954 
	C407.617279,967.182495 416.099030,1001.090454 424.783875,1034.946289 
	C425.111877,1036.224854 427.395233,1037.812744 428.818268,1037.864746 
	C436.639648,1038.150391 444.487000,1037.767334 452.304199,1038.104980 
	C456.033783,1038.266235 457.124023,1036.642822 457.892426,1033.478027 
	C462.526520,1014.392212 467.303986,995.341187 472.047028,976.281921 
	C472.541077,974.296570 473.123840,972.333313 473.665436,970.359802 
	C475.148956,972.253418 475.640411,973.978027 476.061432,975.719666 
	C480.676788,994.810913 485.387360,1013.880371 489.796814,1033.019165 
	C490.654816,1036.743164 491.960480,1038.296997 495.984131,1038.098633 
	C502.965729,1037.754150 509.996399,1037.684692 516.968079,1038.117554 
	C521.444275,1038.395508 522.897522,1036.589722 523.900024,1032.569824 
	C529.337158,1010.767212 535.054260,989.034546 540.662659,967.274597 
	C543.726746,955.386414 546.766418,943.491943 549.908447,931.244263 
	C540.441162,931.244263 531.503784,931.244263 522.164612,931.244263 
	C520.745300,938.382263 519.355652,945.371094 517.828674,953.199829 
M797.685303,648.144775 
	C804.722351,615.784546 796.358093,588.026733 772.051697,565.577271 
	C746.217285,541.716431 708.208313,537.118896 676.663208,553.360901 
	C645.769714,569.267395 627.943481,602.766785 631.899536,637.481384 
	C637.238586,684.330627 675.028198,715.539917 722.308105,712.147095 
	C759.872925,709.451294 788.450562,685.403320 797.685303,648.144775 
M380.492432,880.001770 
	C388.662018,878.838318 397.241486,878.866699 404.904938,876.231384 
	C416.329834,872.302551 421.563629,862.690186 421.470276,850.796875 
	C421.379944,839.295654 415.933014,830.808594 405.159119,826.093445 
	C404.277130,825.707458 403.438782,825.221741 402.278778,824.628113 
	C403.208099,824.124878 403.768494,823.793762 404.351776,823.509705 
	C414.285980,818.671875 418.832123,810.506470 418.500244,799.698608 
	C418.161194,788.657288 412.806458,780.560486 402.522766,776.478333 
	C397.813477,774.609009 392.566345,773.333618 387.525787,773.200439 
	C371.541779,772.778198 355.540161,773.013306 339.545380,773.026611 
	C338.619293,773.027405 337.693481,773.315247 336.722351,773.477051 
	C336.722351,809.072754 336.722351,844.309814 336.722351,880.001770 
	C351.224670,880.001770 365.359772,880.001770 380.492432,880.001770 
M627.643616,830.059143 
	C626.181946,824.964722 625.382751,819.556946 623.146362,814.828918 
	C612.229675,791.749451 585.179626,787.032837 566.835571,804.735962 
	C566.554138,805.007568 566.025330,805.022827 564.918091,805.384216 
	C564.918091,792.774597 564.918091,780.574036 564.918091,768.310059 
	C556.040527,768.310059 547.796265,768.310059 539.403442,768.310059 
	C539.403442,805.626221 539.403442,842.628906 539.403442,879.690796 
	C548.064392,879.690796 556.316528,879.690796 564.888672,879.690796 
	C565.072754,876.224487 565.242188,873.035095 565.432556,869.450928 
	C566.361633,870.107422 566.794678,870.334961 567.130737,870.662170 
	C583.996277,887.076172 609.493530,883.611755 621.502808,863.261169 
	C627.417480,853.238281 628.642395,842.299744 627.643616,830.059143 
M641.997864,793.500000 
	C641.997864,822.218201 641.997864,850.936401 641.997864,879.684998 
	C651.080811,879.684998 659.332092,879.684998 667.894104,879.684998 
	C668.074707,876.213501 668.240601,873.026001 668.438477,869.222168 
	C669.533691,870.186829 670.034363,870.585876 670.487488,871.033081 
	C684.180176,884.546448 705.193359,884.434265 718.758789,870.770447 
	C734.595093,854.819458 735.306885,822.196716 720.181335,805.576172 
	C706.585938,790.637085 684.758850,789.980225 670.485840,804.064880 
	C669.985291,804.558838 669.335022,804.900818 667.869873,805.942749 
	C667.869873,792.740662 667.869873,780.538269 667.869873,768.327393 
	C659.000610,768.327393 650.757812,768.327393 641.997864,768.327393 
	C641.997864,776.598816 641.997864,784.549377 641.997864,793.500000 
M627.653931,1038.004517 
	C634.248718,1038.004517 640.843445,1038.004517 647.533386,1038.004517 
	C647.533386,1009.318542 647.533386,981.419128 647.533386,953.305664 
	C638.776489,953.305664 630.376587,953.305664 621.735107,953.305664 
	C621.457886,956.572754 621.204651,959.556702 620.902344,963.118835 
	C619.713135,962.169556 619.179932,961.799805 618.710938,961.361328 
	C603.665588,947.296753 580.144043,949.270020 567.635620,965.652283 
	C554.677979,982.622986 555.396606,1010.911255 569.197449,1027.121216 
	C580.992920,1040.975464 602.992615,1043.117432 616.464417,1031.715454 
	C617.791931,1030.591797 619.077698,1029.418579 620.935120,1027.781738 
	C621.255005,1031.646362 621.506226,1034.681885 621.781250,1038.004517 
	C623.735535,1038.004517 625.221130,1038.004517 627.653931,1038.004517 
M440.375397,389.003632 
	C459.011322,387.940247 474.450073,380.505188 484.328613,364.441986 
	C496.314758,344.951660 496.653442,324.414673 484.943298,304.754852 
	C473.198669,285.037170 454.445038,277.496796 432.175262,279.240295 
	C400.008118,281.758636 378.018127,310.202881 382.869781,342.109161 
	C387.291595,371.188751 408.773651,389.003662 440.375397,389.003632 
M835.500000,843.004639 
	C846.567688,843.004639 857.635376,843.004639 868.558960,843.004639 
	C871.989441,816.525269 857.823486,797.260986 833.498840,794.237366 
	C807.796082,791.042358 787.709473,806.662354 785.169922,831.819580 
	C782.504822,858.220032 797.787170,878.457092 822.188843,880.840515 
	C844.035950,882.974426 865.026489,869.279114 866.506775,851.839966 
	C866.078674,851.684998 865.629944,851.384033 865.178467,851.379944 
	C858.520142,851.319580 851.857849,851.420288 845.204590,851.216248 
	C841.960754,851.116760 839.778564,851.906067 837.734558,854.786255 
	C833.977478,860.080261 826.408386,861.431091 820.115723,858.644653 
	C814.304871,856.071350 810.697632,849.626221 811.655640,843.004639 
	C819.226440,843.004639 826.863220,843.004639 835.500000,843.004639 
M494.861145,875.649658 
	C495.544708,877.082031 496.182037,879.731506 496.919006,879.759521 
	C504.825684,880.060120 512.748047,879.946716 520.664368,879.946716 
	C520.664368,851.286255 520.664368,823.392944 520.664368,795.429077 
	C511.947876,795.429077 503.577759,795.429077 494.859283,795.429077 
	C494.859283,809.831360 494.903198,823.806580 494.824158,837.781189 
	C494.807343,840.759705 494.599152,843.785034 494.036072,846.703308 
	C492.561005,854.348145 487.013550,858.843079 479.263916,858.988586 
	C469.637146,859.169434 463.227631,852.677490 463.072998,842.030518 
	C462.872284,828.210510 463.021423,814.385498 462.993958,800.562683 
	C462.990479,798.807251 462.830139,797.052002 462.744720,795.341431 
	C453.899689,795.341431 445.650665,795.341431 437.325439,795.341431 
	C437.325439,814.784363 435.892334,834.023682 437.709015,852.950989 
	C439.720398,873.906799 458.163849,885.398071 477.892914,879.673218 
	C483.845947,877.945801 489.106689,873.832397 494.859833,870.717041 
	C494.859833,871.618164 494.859833,873.203857 494.861145,875.649658 
M729.116577,1010.187683 
	C728.909485,1011.678650 728.109314,1013.414551 728.604980,1014.615356 
	C730.174011,1018.415833 731.673218,1022.457397 734.188538,1025.618774 
	C745.764526,1040.167480 773.300171,1043.614502 789.561707,1032.878662 
	C797.148926,1027.869507 800.858643,1020.788635 800.529419,1011.759155 
	C800.184570,1002.299316 795.218689,995.644043 786.710571,992.084717 
	C780.604980,989.530457 774.063904,988.023621 767.734009,985.996582 
	C764.414734,984.933655 760.868225,984.199951 757.937622,982.455322 
	C756.338867,981.503479 754.980103,978.719299 755.053467,976.821106 
	C755.117126,975.177246 757.028381,972.968628 758.687988,972.136658 
	C764.795410,969.075012 772.473511,971.948120 775.780334,977.948242 
	C776.399658,979.072021 777.671875,980.586487 778.686768,980.620850 
	C785.631653,980.855835 792.588257,980.744080 799.494568,980.744080 
	C799.935059,972.223877 794.941101,963.175354 787.310974,957.998596 
	C774.638184,949.400269 752.212341,949.958557 740.002930,959.176453 
	C725.373535,970.221130 727.783936,991.787964 744.579712,999.037964 
	C748.679016,1000.807556 753.108032,1001.817688 757.393921,1003.149597 
	C762.471436,1004.727600 767.694641,1005.953613 772.565918,1008.014587 
	C774.235901,1008.721191 776.000183,1011.505310 775.963684,1013.304504 
	C775.926392,1015.141846 774.131531,1017.635071 772.407898,1018.622498 
	C766.197693,1022.180298 757.508057,1019.120544 753.854309,1012.873230 
	C753.068787,1011.530212 751.011536,1010.214050 749.484192,1010.146240 
	C743.001221,1009.858459 736.497131,1010.045349 729.116577,1010.187683 
M706.382874,980.491577 
	C710.468933,980.204895 714.554932,979.918274 718.686523,979.628418 
	C718.686523,970.293213 718.686523,961.371399 718.686523,952.118591 
	C707.687744,952.037231 700.125854,957.793213 692.745605,966.601807 
	C692.745605,961.235718 692.745605,957.346252 692.745605,953.330688 
	C683.740112,953.330688 675.342224,953.330688 666.853088,953.330688 
	C666.853088,981.673523 666.853088,1009.680359 666.853088,1037.550659 
	C675.753723,1037.550659 684.144531,1037.550659 692.885742,1037.550659 
	C692.885742,1035.286987 692.883118,1033.473022 692.886108,1031.659180 
	C692.905518,1019.828491 692.775940,1007.995056 692.994751,996.168091 
	C693.164062,987.014832 696.689453,982.931641 706.382874,980.491577 
M753.557129,768.000000 
	C750.807861,768.000000 748.058533,768.000000 745.342896,768.000000 
	C745.342896,805.737244 745.342896,842.621521 745.342896,879.572083 
	C754.061829,879.572083 762.432617,879.572083 770.784790,879.572083 
	C770.784790,842.264160 770.784790,805.385498 770.784790,768.000000 
	C765.128662,768.000000 759.835999,768.000000 753.557129,768.000000 
z"/>
<path fill="#2F44FD" opacity="1.000000" stroke="none" 
	d="
M655.680054,199.737427 
	C747.067627,175.736221 837.297852,233.311935 852.448303,326.608063 
	C864.326782,399.755890 823.769165,486.920227 729.175659,505.046082 
	C681.451782,514.190857 637.347961,504.883789 598.464661,475.030670 
	C571.017639,453.957916 554.219604,425.710632 545.519531,392.460571 
	C535.755005,355.142548 537.999451,318.710388 555.066589,283.894073 
	C575.989624,241.211945 609.533264,213.141602 655.680054,199.737427 
M574.875122,417.586609 
	C575.873840,419.317474 576.855103,421.058685 577.873718,422.777771 
	C623.627808,499.993713 731.535889,513.900818 794.692993,450.363373 
	C825.995422,418.872406 839.951782,380.696991 834.796814,336.268524 
	C831.746765,309.980438 822.816589,285.738403 806.246399,264.824249 
	C761.703796,208.604355 676.116150,196.374100 616.664978,237.923431 
	C576.743347,265.823914 559.746521,305.922852 558.349976,353.222412 
	C557.686584,375.691193 563.928894,397.018951 574.875122,417.586609 
z"/>
<path fill="#2F44FD" opacity="1.000000" stroke="none" 
	d="
M498.350281,669.348633 
	C454.929871,681.960754 415.763153,675.255676 382.117950,644.739136 
	C362.882141,627.292053 353.302917,604.523743 348.884766,579.147766 
	C338.868469,521.618958 378.803986,461.531250 442.162628,450.362976 
	C503.653503,439.523926 565.063904,484.212341 573.125671,546.341064 
	C579.759277,597.463440 553.819641,645.339966 508.520447,665.487427 
	C505.332825,666.905151 501.991913,667.978271 498.350281,669.348633 
M385.389923,620.067688 
	C407.562378,647.629150 436.405151,660.475708 471.494659,656.692139 
	C527.908325,650.609253 563.397400,597.430481 554.270996,547.669922 
	C547.698547,511.834656 528.789062,485.905334 493.969330,473.897766 
	C457.953217,461.477570 424.360291,467.328186 395.687927,493.016449 
	C364.855194,520.640259 352.744934,576.885071 385.389923,620.067688 
z"/>
<path fill="#2F43FD" opacity="1.000000" stroke="none" 
	d="
M517.897339,952.779907 
	C519.355652,945.371094 520.745300,938.382263 522.164612,931.244263 
	C531.503784,931.244263 540.441162,931.244263 549.908447,931.244263 
	C546.766418,943.491943 543.726746,955.386414 540.662659,967.274597 
	C535.054260,989.034546 529.337158,1010.767212 523.900024,1032.569824 
	C522.897522,1036.589722 521.444275,1038.395508 516.968079,1038.117554 
	C509.996399,1037.684692 502.965729,1037.754150 495.984131,1038.098633 
	C491.960480,1038.296997 490.654816,1036.743164 489.796814,1033.019165 
	C485.387360,1013.880371 480.676788,994.810913 476.061432,975.719666 
	C475.640411,973.978027 475.148956,972.253418 473.665436,970.359802 
	C473.123840,972.333313 472.541077,974.296570 472.047028,976.281921 
	C467.303986,995.341187 462.526520,1014.392212 457.892426,1033.478027 
	C457.124023,1036.642822 456.033783,1038.266235 452.304199,1038.104980 
	C444.487000,1037.767334 436.639648,1038.150391 428.818268,1037.864746 
	C427.395233,1037.812744 425.111877,1036.224854 424.783875,1034.946289 
	C416.099030,1001.090454 407.617279,967.182495 399.122620,933.277954 
	C399.008484,932.822388 399.172852,932.296997 399.258728,931.066711 
	C407.645050,931.066711 416.062469,930.937988 424.463196,931.253784 
	C425.362701,931.287598 426.634094,933.817810 426.941559,935.348877 
	C431.398346,957.542664 435.715057,979.764526 440.084869,1001.975769 
	C440.370880,1003.429688 440.815796,1004.852295 441.581818,1007.819641 
	C448.012299,981.410889 454.093445,956.436890 460.282349,931.020264 
	C469.123352,931.020264 477.764526,930.840820 486.380585,931.224670 
	C487.593689,931.278748 489.320831,933.932373 489.733154,935.642395 
	C493.946930,953.117432 497.931427,970.647705 501.994476,988.159119 
	C503.382629,994.141968 504.811768,1000.115295 507.197174,1006.189636 
	C510.740997,988.526367 514.284851,970.863098 517.897339,952.779907 
z"/>
<path fill="#2E44FD" opacity="1.000000" stroke="none" 
	d="
M797.555908,648.539978 
	C788.450562,685.403320 759.872925,709.451294 722.308105,712.147095 
	C675.028198,715.539917 637.238586,684.330627 631.899536,637.481384 
	C627.943481,602.766785 645.769714,569.267395 676.663208,553.360901 
	C708.208313,537.118896 746.217285,541.716431 772.051697,565.577271 
	C796.358093,588.026733 804.722351,615.784546 797.555908,648.539978 
M656.992554,658.388428 
	C674.734802,691.851929 716.038086,704.421936 747.742737,686.006714 
	C781.368591,666.475708 791.743958,624.644775 771.037231,592.090088 
	C753.020996,563.765564 712.874329,554.331116 682.487793,571.281128 
	C652.786377,587.848938 641.261047,626.433472 656.992554,658.388428 
z"/>
<path fill="#2F43FD" opacity="1.000000" stroke="none" 
	d="
M379.993652,880.001770 
	C365.359772,880.001770 351.224670,880.001770 336.722351,880.001770 
	C336.722351,844.309814 336.722351,809.072754 336.722351,773.477051 
	C337.693481,773.315247 338.619293,773.027405 339.545380,773.026611 
	C355.540161,773.013306 371.541779,772.778198 387.525787,773.200439 
	C392.566345,773.333618 397.813477,774.609009 402.522766,776.478333 
	C412.806458,780.560486 418.161194,788.657288 418.500244,799.698608 
	C418.832123,810.506470 414.285980,818.671875 404.351776,823.509705 
	C403.768494,823.793762 403.208099,824.124878 402.278778,824.628113 
	C403.438782,825.221741 404.277130,825.707458 405.159119,826.093445 
	C415.933014,830.808594 421.379944,839.295654 421.470276,850.796875 
	C421.563629,862.690186 416.329834,872.302551 404.904938,876.231384 
	C397.241486,878.866699 388.662018,878.838318 379.993652,880.001770 
M391.333893,838.128418 
	C382.401489,832.402222 372.691833,836.030884 363.244232,834.960205 
	C363.244232,843.366638 363.244232,850.929138 363.244232,858.991089 
	C369.718140,858.991089 375.838348,859.075623 381.955017,858.964844 
	C386.991119,858.873596 391.786194,857.743958 394.006134,852.610596 
	C396.134155,847.689819 395.597290,842.848938 391.333893,838.128418 
M374.453979,793.999939 
	C370.702942,793.999939 366.951904,793.999939 363.298645,793.999939 
	C363.298645,801.789917 363.298645,808.695801 363.298645,815.999756 
	C368.350494,815.999756 372.991211,816.010986 377.631836,815.993347 
	C379.130402,815.987671 380.644867,816.030579 382.124329,815.838074 
	C388.761017,814.974487 392.112885,811.259644 392.074554,804.928528 
	C392.037140,798.745239 388.487671,794.904724 381.913055,794.151489 
	C379.770935,793.906128 377.585419,794.039673 374.453979,793.999939 
z"/>
<path fill="#2F43FD" opacity="1.000000" stroke="none" 
	d="
M627.708374,830.508240 
	C628.642395,842.299744 627.417480,853.238281 621.502808,863.261169 
	C609.493530,883.611755 583.996277,887.076172 567.130737,870.662170 
	C566.794678,870.334961 566.361633,870.107422 565.432556,869.450928 
	C565.242188,873.035095 565.072754,876.224487 564.888672,879.690796 
	C556.316528,879.690796 548.064392,879.690796 539.403442,879.690796 
	C539.403442,842.628906 539.403442,805.626221 539.403442,768.310059 
	C547.796265,768.310059 556.040527,768.310059 564.918091,768.310059 
	C564.918091,780.574036 564.918091,792.774597 564.918091,805.384216 
	C566.025330,805.022827 566.554138,805.007568 566.835571,804.735962 
	C585.179626,787.032837 612.229675,791.749451 623.146362,814.828918 
	C625.382751,819.556946 626.181946,824.964722 627.708374,830.508240 
M596.939148,822.627075 
	C586.893494,812.824036 572.112305,815.266296 567.081116,827.655457 
	C564.404297,834.247070 564.406128,841.015259 567.182495,847.557800 
	C570.016479,854.235962 575.256531,858.175476 582.540100,858.477539 
	C589.975220,858.785950 595.858398,855.497498 599.114136,848.705627 
	C603.288696,839.996826 602.895264,831.368591 596.939148,822.627075 
z"/>
<path fill="#2F43FD" opacity="1.000000" stroke="none" 
	d="
M641.997864,793.000000 
	C641.997864,784.549377 641.997864,776.598816 641.997864,768.327393 
	C650.757812,768.327393 659.000610,768.327393 667.869873,768.327393 
	C667.869873,780.538269 667.869873,792.740662 667.869873,805.942749 
	C669.335022,804.900818 669.985291,804.558838 670.485840,804.064880 
	C684.758850,789.980225 706.585938,790.637085 720.181335,805.576172 
	C735.306885,822.196716 734.595093,854.819458 718.758789,870.770447 
	C705.193359,884.434265 684.180176,884.546448 670.487488,871.033081 
	C670.034363,870.585876 669.533691,870.186829 668.438477,869.222168 
	C668.240601,873.026001 668.074707,876.213501 667.894104,879.684998 
	C659.332092,879.684998 651.080811,879.684998 641.997864,879.684998 
	C641.997864,850.936401 641.997864,822.218201 641.997864,793.000000 
M704.108704,831.590759 
	C701.630188,822.012451 695.497070,816.662109 686.777588,816.471619 
	C678.752563,816.296326 671.102600,821.451538 669.568481,829.661316 
	C668.540588,835.161804 668.775208,841.286194 670.082458,846.738892 
	C671.797058,853.890930 678.679443,858.474426 685.767517,858.523621 
	C693.241943,858.575500 699.499451,855.435852 702.085022,848.387573 
	C703.893005,843.459045 703.609680,837.763367 704.108704,831.590759 
z"/>
<path fill="#2E44FD" opacity="1.000000" stroke="none" 
	d="
M627.180359,1038.004517 
	C625.221130,1038.004517 623.735535,1038.004517 621.781250,1038.004517 
	C621.506226,1034.681885 621.255005,1031.646362 620.935120,1027.781738 
	C619.077698,1029.418579 617.791931,1030.591797 616.464417,1031.715454 
	C602.992615,1043.117432 580.992920,1040.975464 569.197449,1027.121216 
	C555.396606,1010.911255 554.677979,982.622986 567.635620,965.652283 
	C580.144043,949.270020 603.665588,947.296753 618.710938,961.361328 
	C619.179932,961.799805 619.713135,962.169556 620.902344,963.118835 
	C621.204651,959.556702 621.457886,956.572754 621.735107,953.305664 
	C630.376587,953.305664 638.776489,953.305664 647.533386,953.305664 
	C647.533386,981.419128 647.533386,1009.318542 647.533386,1038.004517 
	C640.843445,1038.004517 634.248718,1038.004517 627.180359,1038.004517 
M619.191589,984.610352 
	C614.283630,976.569885 608.379517,973.632385 599.705261,974.915100 
	C592.914001,975.919373 586.581848,981.466187 585.668884,989.178528 
	C585.012512,994.723816 585.447144,1000.902161 587.304138,1006.118469 
	C589.848999,1013.267029 596.075745,1016.608398 603.913879,1016.317749 
	C611.100281,1016.051270 617.457397,1011.703247 619.854126,1004.805420 
	C622.099854,998.341980 621.971985,991.770508 619.191589,984.610352 
z"/>
<path fill="#2F44FD" opacity="1.000000" stroke="none" 
	d="
M439.896912,389.004059 
	C408.773651,389.003662 387.291595,371.188751 382.869781,342.109161 
	C378.018127,310.202881 400.008118,281.758636 432.175262,279.240295 
	C454.445038,277.496796 473.198669,285.037170 484.943298,304.754852 
	C496.653442,324.414673 496.314758,344.951660 484.328613,364.441986 
	C474.450073,380.505188 459.011322,387.940247 439.896912,389.004059 
M463.570251,360.072113 
	C478.227325,344.778198 478.307465,322.616394 463.757996,308.166992 
	C449.321411,293.829712 426.087677,293.761688 411.598389,308.014252 
	C397.536194,321.846710 397.083984,344.551453 410.583435,358.973938 
	C424.624176,373.974731 447.623047,374.674744 463.570251,360.072113 
z"/>
<path fill="#2F44FD" opacity="1.000000" stroke="none" 
	d="
M835.000000,843.004639 
	C826.863220,843.004639 819.226440,843.004639 811.655640,843.004639 
	C810.697632,849.626221 814.304871,856.071350 820.115723,858.644653 
	C826.408386,861.431091 833.977478,860.080261 837.734558,854.786255 
	C839.778564,851.906067 841.960754,851.116760 845.204590,851.216248 
	C851.857849,851.420288 858.520142,851.319580 865.178467,851.379944 
	C865.629944,851.384033 866.078674,851.684998 866.506775,851.839966 
	C865.026489,869.279114 844.035950,882.974426 822.188843,880.840515 
	C797.787170,878.457092 782.504822,858.220032 785.169922,831.819580 
	C787.709473,806.662354 807.796082,791.042358 833.498840,794.237366 
	C857.823486,797.260986 871.989441,816.525269 868.558960,843.004639 
	C857.635376,843.004639 846.567688,843.004639 835.000000,843.004639 
M815.722412,819.169861 
	C813.984802,822.119812 812.247253,825.069763 810.076843,828.754517 
	C821.950928,828.754517 832.231506,828.754517 842.504028,828.754517 
	C842.646301,822.803711 840.167297,818.833557 834.717407,816.566589 
	C828.230042,813.868164 822.031738,814.518921 815.722412,819.169861 
z"/>
<path fill="#2F42FD" opacity="1.000000" stroke="none" 
	d="
M494.860474,875.219604 
	C494.859833,873.203857 494.859833,871.618164 494.859833,870.717041 
	C489.106689,873.832397 483.845947,877.945801 477.892914,879.673218 
	C458.163849,885.398071 439.720398,873.906799 437.709015,852.950989 
	C435.892334,834.023682 437.325439,814.784363 437.325439,795.341431 
	C445.650665,795.341431 453.899689,795.341431 462.744720,795.341431 
	C462.830139,797.052002 462.990479,798.807251 462.993958,800.562683 
	C463.021423,814.385498 462.872284,828.210510 463.072998,842.030518 
	C463.227631,852.677490 469.637146,859.169434 479.263916,858.988586 
	C487.013550,858.843079 492.561005,854.348145 494.036072,846.703308 
	C494.599152,843.785034 494.807343,840.759705 494.824158,837.781189 
	C494.903198,823.806580 494.859283,809.831360 494.859283,795.429077 
	C503.577759,795.429077 511.947876,795.429077 520.664368,795.429077 
	C520.664368,823.392944 520.664368,851.286255 520.664368,879.946716 
	C512.748047,879.946716 504.825684,880.060120 496.919006,879.759521 
	C496.182037,879.731506 495.544708,877.082031 494.860474,875.219604 
z"/>
<path fill="#2E44FD" opacity="1.000000" stroke="none" 
	d="
M729.558716,1010.123291 
	C736.497131,1010.045349 743.001221,1009.858459 749.484192,1010.146240 
	C751.011536,1010.214050 753.068787,1011.530212 753.854309,1012.873230 
	C757.508057,1019.120544 766.197693,1022.180298 772.407898,1018.622498 
	C774.131531,1017.635071 775.926392,1015.141846 775.963684,1013.304504 
	C776.000183,1011.505310 774.235901,1008.721191 772.565918,1008.014587 
	C767.694641,1005.953613 762.471436,1004.727600 757.393921,1003.149597 
	C753.108032,1001.817688 748.679016,1000.807556 744.579712,999.037964 
	C727.783936,991.787964 725.373535,970.221130 740.002930,959.176453 
	C752.212341,949.958557 774.638184,949.400269 787.310974,957.998596 
	C794.941101,963.175354 799.935059,972.223877 799.494568,980.744080 
	C792.588257,980.744080 785.631653,980.855835 778.686768,980.620850 
	C777.671875,980.586487 776.399658,979.072021 775.780334,977.948242 
	C772.473511,971.948120 764.795410,969.075012 758.687988,972.136658 
	C757.028381,972.968628 755.117126,975.177246 755.053467,976.821106 
	C754.980103,978.719299 756.338867,981.503479 757.937622,982.455322 
	C760.868225,984.199951 764.414734,984.933655 767.734009,985.996582 
	C774.063904,988.023621 780.604980,989.530457 786.710571,992.084717 
	C795.218689,995.644043 800.184570,1002.299316 800.529419,1011.759155 
	C800.858643,1020.788635 797.148926,1027.869507 789.561707,1032.878662 
	C773.300171,1043.614502 745.764526,1040.167480 734.188538,1025.618774 
	C731.673218,1022.457397 730.174011,1018.415833 728.604980,1014.615356 
	C728.109314,1013.414551 728.909485,1011.678650 729.558716,1010.123291 
z"/>
<path fill="#2F43FD" opacity="1.000000" stroke="none" 
	d="
M705.972778,980.590698 
	C696.689453,982.931641 693.164062,987.014832 692.994751,996.168091 
	C692.775940,1007.995056 692.905518,1019.828491 692.886108,1031.659180 
	C692.883118,1033.473022 692.885742,1035.286987 692.885742,1037.550659 
	C684.144531,1037.550659 675.753723,1037.550659 666.853088,1037.550659 
	C666.853088,1009.680359 666.853088,981.673523 666.853088,953.330688 
	C675.342224,953.330688 683.740112,953.330688 692.745605,953.330688 
	C692.745605,957.346252 692.745605,961.235718 692.745605,966.601807 
	C700.125854,957.793213 707.687744,952.037231 718.686523,952.118591 
	C718.686523,961.371399 718.686523,970.293213 718.686523,979.628418 
	C714.554932,979.918274 710.468933,980.204895 705.972778,980.590698 
z"/>
<path fill="#2F42FD" opacity="1.000000" stroke="none" 
	d="
M754.050171,768.000000 
	C759.835999,768.000000 765.128662,768.000000 770.784790,768.000000 
	C770.784790,805.385498 770.784790,842.264160 770.784790,879.572083 
	C762.432617,879.572083 754.061829,879.572083 745.342896,879.572083 
	C745.342896,842.621521 745.342896,805.737244 745.342896,768.000000 
	C748.058533,768.000000 750.807861,768.000000 754.050171,768.000000 
z"/>
<path fill="#03E3FD" opacity="1.000000" stroke="none" 
	d="
M574.690918,417.266846 
	C563.928894,397.018951 557.686584,375.691193 558.349976,353.222412 
	C559.746521,305.922852 576.743347,265.823914 616.664978,237.923431 
	C676.116150,196.374100 761.703796,208.604355 806.246399,264.824249 
	C822.816589,285.738403 831.746765,309.980438 834.796814,336.268524 
	C839.951782,380.696991 825.995422,418.872406 794.692993,450.363373 
	C731.535889,513.900818 623.627808,499.993713 577.873718,422.777771 
	C576.855103,421.058685 575.873840,419.317474 574.690918,417.266846 
M814.172729,358.760040 
	C815.329163,355.100922 817.728943,351.327454 817.405029,347.804413 
	C816.495056,337.907379 815.418213,327.842010 812.713928,318.324127 
	C798.147400,267.056061 751.770325,232.170441 699.197266,231.164307 
	C692.540894,231.036911 688.275085,234.640961 688.077087,240.058029 
	C687.868103,245.777222 692.095520,249.757492 698.924377,249.837723 
	C752.775940,250.470413 798.148315,294.348572 799.015625,350.209534 
	C799.154297,359.140656 805.409058,362.947144 814.172729,358.760040 
z"/>
<path fill="#03E3FD" opacity="1.000000" stroke="none" 
	d="
M385.171021,619.782593 
	C352.744934,576.885071 364.855194,520.640259 395.687927,493.016449 
	C424.360291,467.328186 457.953217,461.477570 493.969330,473.897766 
	C528.789062,485.905334 547.698547,511.834656 554.270996,547.669922 
	C563.397400,597.430481 527.908325,650.609253 471.494659,656.692139 
	C436.405151,660.475708 407.562378,647.629150 385.171021,619.782593 
M395.500549,602.000061 
	C410.372528,625.307068 431.612579,637.636475 459.237671,638.830261 
	C461.150635,638.912842 463.329315,638.591980 464.986084,637.710266 
	C468.909821,635.621887 470.704376,632.071533 469.655029,627.665466 
	C468.441956,622.571777 464.641205,620.211304 459.687256,620.228394 
	C431.206848,620.326355 403.725250,596.670105 402.950897,563.334900 
	C402.808350,557.200012 398.724762,553.220032 393.349792,553.380493 
	C387.963196,553.541321 384.096405,558.198242 384.371368,564.421021 
	C384.953827,577.603333 388.228363,590.024353 395.500549,602.000061 
z"/>
<path fill="#03E4FD" opacity="1.000000" stroke="none" 
	d="
M656.831360,658.050842 
	C641.261047,626.433472 652.786377,587.848938 682.487793,571.281128 
	C712.874329,554.331116 753.020996,563.765564 771.037231,592.090088 
	C791.743958,624.644775 781.368591,666.475708 747.742737,686.006714 
	C716.038086,704.421936 674.734802,691.851929 656.831360,658.050842 
z"/>
<path fill="#03E3FD" opacity="1.000000" stroke="none" 
	d="
M391.613373,838.389038 
	C395.597290,842.848938 396.134155,847.689819 394.006134,852.610596 
	C391.786194,857.743958 386.991119,858.873596 381.955017,858.964844 
	C375.838348,859.075623 369.718140,858.991089 363.244232,858.991089 
	C363.244232,850.929138 363.244232,843.366638 363.244232,834.960205 
	C372.691833,836.030884 382.401489,832.402222 391.613373,838.389038 
z"/>
<path fill="#03E3FD" opacity="1.000000" stroke="none" 
	d="
M374.936859,794.000000 
	C377.585419,794.039673 379.770935,793.906128 381.913055,794.151489 
	C388.487671,794.904724 392.037140,798.745239 392.074554,804.928528 
	C392.112885,811.259644 388.761017,814.974487 382.124329,815.838074 
	C380.644867,816.030579 379.130402,815.987671 377.631836,815.993347 
	C372.991211,816.010986 368.350494,815.999756 363.298645,815.999756 
	C363.298645,808.695801 363.298645,801.789917 363.298645,793.999939 
	C366.951904,793.999939 370.702942,793.999939 374.936859,794.000000 
z"/>
<path fill="#04E2FD" opacity="1.000000" stroke="none" 
	d="
M597.171997,822.911011 
	C602.895264,831.368591 603.288696,839.996826 599.114136,848.705627 
	C595.858398,855.497498 589.975220,858.785950 582.540100,858.477539 
	C575.256531,858.175476 570.016479,854.235962 567.182495,847.557800 
	C564.406128,841.015259 564.404297,834.247070 567.081116,827.655457 
	C572.112305,815.266296 586.893494,812.824036 597.171997,822.911011 
z"/>
<path fill="#04E2FD" opacity="1.000000" stroke="none" 
	d="
M704.184509,832.000488 
	C703.609680,837.763367 703.893005,843.459045 702.085022,848.387573 
	C699.499451,855.435852 693.241943,858.575500 685.767517,858.523621 
	C678.679443,858.474426 671.797058,853.890930 670.082458,846.738892 
	C668.775208,841.286194 668.540588,835.161804 669.568481,829.661316 
	C671.102600,821.451538 678.752563,816.296326 686.777588,816.471619 
	C695.497070,816.662109 701.630188,822.012451 704.184509,832.000488 
z"/>
<path fill="#03E3FD" opacity="1.000000" stroke="none" 
	d="
M619.368774,984.959106 
	C621.971985,991.770508 622.099854,998.341980 619.854126,1004.805420 
	C617.457397,1011.703247 611.100281,1016.051270 603.913879,1016.317749 
	C596.075745,1016.608398 589.848999,1013.267029 587.304138,1006.118469 
	C585.447144,1000.902161 585.012512,994.723816 585.668884,989.178528 
	C586.581848,981.466187 592.914001,975.919373 599.705261,974.915100 
	C608.379517,973.632385 614.283630,976.569885 619.368774,984.959106 
z"/>
<path fill="#03E3FD" opacity="1.000000" stroke="none" 
	d="
M463.313416,360.321594 
	C447.623047,374.674744 424.624176,373.974731 410.583435,358.973938 
	C397.083984,344.551453 397.536194,321.846710 411.598389,308.014252 
	C426.087677,293.761688 449.321411,293.829712 463.757996,308.166992 
	C478.307465,322.616394 478.227325,344.778198 463.313416,360.321594 
z"/>
<path fill="#04E2FD" opacity="1.000000" stroke="none" 
	d="
M816.003357,818.926025 
	C822.031738,814.518921 828.230042,813.868164 834.717407,816.566589 
	C840.167297,818.833557 842.646301,822.803711 842.504028,828.754517 
	C832.231506,828.754517 821.950928,828.754517 810.076843,828.754517 
	C812.247253,825.069763 813.984802,822.119812 816.003357,818.926025 
z"/>
<path fill="#2F44FD" opacity="1.000000" stroke="none" 
	d="
M813.859863,358.983093 
	C805.409058,362.947144 799.154297,359.140656 799.015625,350.209534 
	C798.148315,294.348572 752.775940,250.470413 698.924377,249.837723 
	C692.095520,249.757492 687.868103,245.777222 688.077087,240.058029 
	C688.275085,234.640961 692.540894,231.036911 699.197266,231.164307 
	C751.770325,232.170441 798.147400,267.056061 812.713928,318.324127 
	C815.418213,327.842010 816.495056,337.907379 817.405029,347.804413 
	C817.728943,351.327454 815.329163,355.100922 813.859863,358.983093 
z"/>
<path fill="#2E45FD" opacity="1.000000" stroke="none" 
	d="
M395.303101,601.694458 
	C388.228363,590.024353 384.953827,577.603333 384.371368,564.421021 
	C384.096405,558.198242 387.963196,553.541321 393.349792,553.380493 
	C398.724762,553.220032 402.808350,557.200012 402.950897,563.334900 
	C403.725250,596.670105 431.206848,620.326355 459.687256,620.228394 
	C464.641205,620.211304 468.441956,622.571777 469.655029,627.665466 
	C470.704376,632.071533 468.909821,635.621887 464.986084,637.710266 
	C463.329315,638.591980 461.150635,638.912842 459.237671,638.830261 
	C431.612579,637.636475 410.372528,625.307068 395.303101,601.694458 
z"/>
</svg>