<svg version="1.1" id="Layer_1" xmlns="http://www.w3.org/2000/svg" xmlns:xlink="http://www.w3.org/1999/xlink" x="0px" y="0px"
	 width="100%" viewBox="0 0 1200 1200" enable-background="new 0 0 1200 1200" xml:space="preserve">
<path fill="#000000" opacity="1.000000" stroke="none" 
	d="
M667.000000,1201.000000 
	C444.666656,1201.000000 222.833328,1201.000000 1.000000,1201.000000 
	C1.000000,801.000000 1.000000,401.000000 1.000000,1.000000 
	C401.000000,1.000000 801.000000,1.000000 1201.000000,1.000000 
	C1201.000000,401.000000 1201.000000,801.000000 1201.000000,1201.000000 
	C1023.166687,1201.000000 845.333313,1201.000000 667.000000,1201.000000 
M520.078552,795.026917 
	C511.500000,795.026917 502.921448,795.026917 493.999573,795.026917 
	C493.999573,797.386841 493.999573,799.186768 493.999573,800.986694 
	C493.999451,815.109009 493.989105,829.231384 494.003967,843.353699 
	C494.010498,849.551208 491.051788,854.472229 485.768616,856.842102 
	C480.905518,859.023560 475.382111,859.251099 470.312042,855.883118 
	C465.205048,852.490662 464.039795,847.516602 463.971771,841.048401 
	C463.981232,827.063660 464.017059,813.078857 463.956757,799.094421 
	C463.951111,797.783691 463.338379,796.475586 462.078369,795.026855 
	C453.483246,795.026855 444.888092,795.026855 435.999542,795.026855 
	C435.999542,810.613159 435.810486,825.584656 436.092194,840.547241 
	C436.205597,846.569641 436.739044,852.720703 438.150665,858.554443 
	C441.362457,871.827332 451.859833,879.755920 463.125610,880.923340 
	C474.417816,882.093323 485.120117,880.513000 493.755066,870.684814 
	C493.944275,874.329895 494.083679,877.015442 494.229950,879.833557 
	C503.407562,879.833557 512.207642,879.833557 521.810974,879.524170 
	C521.871765,852.048706 521.939209,824.573303 521.951904,797.097839 
	C521.952209,796.454163 521.336304,795.810242 520.078552,795.026917 
M634.354858,206.928680 
	C618.290771,213.089264 604.356812,222.771545 591.646973,234.055008 
	C579.692200,244.668076 569.529907,256.933685 561.483704,270.914642 
	C545.881592,298.024658 537.299072,326.848297 540.099915,358.340698 
	C541.109863,369.696930 542.636047,381.103333 545.150757,392.209686 
	C550.409668,415.436462 560.822632,436.493378 576.284973,454.529022 
	C591.265869,472.003143 609.318848,485.751862 630.710510,495.060822 
	C650.626038,503.727448 671.460449,508.204773 692.900574,508.705902 
	C705.579346,509.002197 718.490662,507.249298 731.012573,504.899994 
	C770.509155,497.489838 802.708130,477.491669 825.546082,444.488922 
	C847.802979,412.325958 857.316956,376.143005 854.094543,336.801117 
	C852.870789,321.860565 849.410095,307.591095 844.029419,293.685638 
	C836.932800,275.345795 826.655945,259.013611 813.186279,244.706314 
	C801.862976,232.678864 789.230347,222.381531 774.792480,214.138412 
	C754.305237,202.441452 732.296448,195.945587 708.975464,194.175827 
	C699.294067,193.441116 689.451538,194.451340 679.704895,195.041306 
	C664.097656,195.986053 649.304688,200.333023 634.354858,206.928680 
M347.070679,570.090759 
	C347.708954,573.617004 348.433746,577.130066 348.971771,580.671509 
	C353.325775,609.329163 366.163879,633.175415 388.928711,651.440552 
	C409.049347,667.584167 432.422333,674.928284 457.789062,675.789551 
	C467.026703,676.103149 476.451813,674.585022 485.608124,672.904358 
	C512.054993,668.049744 533.920227,654.879761 550.466125,633.818115 
	C566.829224,612.989075 574.062256,588.439819 574.695251,562.304077 
	C574.943665,552.049011 572.592896,541.500977 570.010376,531.449951 
	C561.900269,499.885376 542.193848,477.132874 514.013611,461.642487 
	C502.428711,455.274353 489.879150,451.341431 476.524689,449.857910 
	C462.789032,448.332062 449.140686,448.251312 435.711060,451.248108 
	C418.821381,455.016968 403.542816,462.359070 389.987671,473.386688 
	C373.316681,486.949188 361.015930,503.463989 353.650604,523.698730 
	C348.292175,538.419800 346.411041,553.592346 347.070679,570.090759 
M444.481873,1038.000000 
	C447.314026,1037.999878 450.151123,1037.895264 452.977020,1038.028076 
	C455.973969,1038.168945 457.420502,1037.627930 458.240753,1033.976196 
	C461.834076,1017.979370 466.025421,1002.116028 470.061249,986.219910 
	C471.297577,981.350342 472.729553,976.530457 474.329468,970.758911 
	C479.915863,993.947266 485.222900,1015.975952 490.528625,1037.999268 
	C500.434326,1037.999268 509.930023,1037.905762 519.421692,1038.060669 
	C522.011536,1038.102905 523.374451,1037.232910 523.969360,1034.795166 
	C525.973206,1026.583618 527.925232,1018.357727 530.063110,1010.180847 
	C535.278442,990.232849 540.634644,970.321655 545.829773,950.368530 
	C547.452881,944.134399 548.742859,937.813538 550.306091,931.006653 
	C541.187378,931.006653 532.713928,930.903137 524.249573,931.132751 
	C523.145935,931.162720 521.349731,932.755859 521.121033,933.878845 
	C517.613953,951.098389 514.355530,968.368286 510.943939,985.607727 
	C509.717377,991.805969 508.238373,997.954224 506.618378,1005.284546 
	C505.860168,1002.265503 505.400909,1000.549133 504.998962,998.819458 
	C499.996826,977.293213 495.054565,955.752747 489.881378,934.267761 
	C489.565491,932.955994 487.490601,931.233154 486.144257,931.149475 
	C480.501465,930.799133 474.824432,931.000366 469.159943,931.000183 
	C460.050201,930.999939 460.044281,930.998535 457.698822,939.635559 
	C457.103516,941.827637 456.531586,944.026917 455.996155,946.234314 
	C451.233948,965.867432 446.482269,985.503174 441.484131,1006.143311 
	C436.412445,980.397095 431.553650,955.731628 426.721497,931.201294 
	C416.879944,931.201294 407.587952,931.201294 397.977112,931.201294 
	C406.613129,965.459961 415.291565,999.426941 423.601044,1033.484009 
	C424.545441,1037.354736 425.991333,1038.234619 429.495789,1038.057739 
	C434.148804,1037.822876 438.822601,1037.999878 444.481873,1038.000000 
M679.765930,551.056824 
	C676.941467,552.685181 674.106873,554.296265 671.294128,555.944641 
	C654.373413,565.860657 643.064819,580.526489 636.067871,598.547302 
	C630.674927,612.437073 629.659607,626.912354 632.000977,641.624939 
	C634.595337,657.927429 640.540466,673.000488 651.781982,685.043396 
	C674.132263,708.987061 702.015442,716.914490 734.044739,711.006287 
	C753.759644,707.369690 770.073120,697.428345 782.195740,681.949219 
	C795.880859,664.474976 801.536194,644.059082 800.125732,621.588928 
	C798.939209,602.686768 792.019104,586.241577 779.687988,572.428772 
	C761.631470,552.202393 738.825256,542.541992 711.324890,543.825134 
	C700.457458,544.332153 690.439880,547.044189 679.765930,551.056824 
M335.999573,843.500000 
	C335.999573,855.586914 335.999573,867.673828 335.999573,879.599304 
	C337.017395,879.823120 337.333923,879.953369 337.650604,879.953796 
	C355.143463,879.976135 372.636566,880.040527 390.128906,879.952576 
	C393.380524,879.936218 396.715210,879.658569 399.864807,878.895691 
	C418.669281,874.340881 427.665771,854.650024 418.718170,837.452271 
	C415.503662,831.273804 410.074890,827.228821 403.835022,824.699341 
	C405.990997,823.239746 408.041931,821.959351 409.977234,820.523132 
	C420.936951,812.389587 421.612183,795.744812 414.854462,785.629150 
	C409.069641,776.969666 400.004517,773.123413 389.616302,773.035522 
	C373.623627,772.900208 357.628937,773.000000 341.635101,773.000061 
	C339.866882,773.000061 338.098663,773.000061 335.999573,773.000061 
	C335.999573,796.575623 335.999573,819.537842 335.999573,843.500000 
M642.000122,796.500000 
	C642.000122,824.244568 642.000122,851.989075 642.000122,879.620850 
	C651.410889,879.620850 660.133301,879.620850 669.248779,879.620850 
	C669.248779,876.687500 669.248779,874.132446 669.248779,870.726807 
	C676.645569,879.155823 685.419922,881.067749 695.433350,881.167786 
	C711.689392,881.330200 723.303955,870.192383 727.950256,857.329590 
	C732.669800,844.263916 732.393677,831.062134 728.065674,817.832764 
	C720.900085,795.929626 695.883667,787.738403 677.236389,797.999512 
	C674.469788,799.521790 671.997498,801.579102 668.884277,803.739075 
	C668.884277,791.616211 668.884277,780.034180 668.884277,768.302979 
	C659.781860,768.302979 651.064453,768.302979 642.000122,768.302979 
	C642.000122,777.568298 642.000122,786.534180 642.000122,796.500000 
M539.000122,852.500000 
	C539.000122,861.588440 539.000122,870.676880 539.000122,879.607300 
	C548.426147,879.607300 557.144165,879.607300 565.841370,879.607300 
	C565.977966,876.665466 566.096313,874.115173 566.254272,870.712830 
	C573.656921,879.186829 582.451904,881.061340 592.460815,881.165039 
	C608.640076,881.332642 620.307312,870.218201 624.956421,857.303406 
	C629.662109,844.231689 629.403625,831.028564 625.058838,817.806580 
	C617.849243,795.865967 592.842346,787.762329 574.209534,798.005066 
	C571.445435,799.524536 568.978638,801.584656 565.861816,803.750793 
	C565.861816,791.602234 565.861816,780.016541 565.861816,768.312744 
	C556.761414,768.312744 548.044006,768.312744 539.000122,768.312744 
	C539.000122,796.249329 539.000122,823.874634 539.000122,852.500000 
M647.999329,1033.341797 
	C647.999329,1006.607422 647.999329,979.873047 647.999329,953.271729 
	C638.573914,953.271729 629.962524,953.271729 620.888062,953.271729 
	C620.888062,956.384827 620.888062,959.249634 620.888062,962.318054 
	C613.458313,954.914795 605.264404,951.665100 595.022766,951.819824 
	C580.109070,952.045227 569.787354,958.953918 563.241760,971.623474 
	C557.071411,983.566772 556.854431,996.302490 559.625122,1009.394104 
	C561.841064,1019.864868 567.674805,1027.738159 575.833252,1033.842285 
	C582.671692,1038.958740 590.990173,1039.377686 599.377502,1039.077026 
	C608.070801,1038.765381 614.635071,1034.473389 621.186768,1028.389160 
	C621.186768,1031.887939 621.186768,1034.791016 621.186768,1037.996826 
	C629.419006,1037.996826 637.228149,1037.869873 645.029602,1038.059692 
	C648.129395,1038.135132 648.145386,1036.447876 647.999329,1033.341797 
M461.214630,384.936981 
	C466.380493,381.554108 472.225220,378.872925 476.584167,374.655975 
	C489.362427,362.294067 494.592773,346.918365 493.051270,329.106171 
	C491.539551,311.638702 484.301575,297.694061 469.520325,287.810913 
	C458.377075,280.360199 446.099060,278.282806 433.009338,278.968903 
	C415.823517,279.869781 402.191925,287.541931 392.092712,301.078583 
	C384.440552,311.335205 381.371216,323.283569 381.973328,336.166473 
	C382.742249,352.619843 388.488312,366.746399 401.639496,377.049957 
	C419.574524,391.101532 439.477386,392.355438 461.214630,384.936981 
M800.507935,873.010315 
	C820.560974,888.349487 860.579956,883.637451 867.674500,851.388916 
	C867.377869,851.274963 867.081604,851.062744 866.784485,851.061462 
	C859.120483,851.027710 851.446533,851.235840 843.797241,850.892212 
	C840.730469,850.754456 839.315552,852.265259 837.287598,854.013000 
	C834.770386,856.182495 831.573425,858.257080 828.391113,858.834045 
	C817.857788,860.743652 812.135376,852.584595 811.191101,842.999817 
	C813.019348,842.999817 814.803040,842.999817 816.586670,842.999817 
	C832.581909,842.999756 848.578857,842.871155 864.571228,843.086548 
	C868.780579,843.143250 870.289368,841.509338 869.990540,837.635559 
	C869.700378,833.873962 869.526428,830.088623 868.959961,826.365723 
	C867.131226,814.345581 860.719543,805.380310 850.389587,799.102051 
	C841.495117,793.696167 831.647400,793.340271 821.755859,794.067505 
	C808.221741,795.062622 797.442566,801.071777 790.486511,813.034729 
	C783.159119,825.636108 783.587891,839.324158 786.574646,852.743225 
	C788.325928,860.611511 792.543945,867.931885 800.507935,873.010315 
M753.496765,952.878845 
	C751.750488,953.257812 749.935608,953.446228 748.268677,954.045715 
	C734.222290,959.097778 725.856750,972.862854 731.919617,988.031921 
	C735.371948,996.669189 743.087646,999.349792 750.790710,1001.926819 
	C757.712952,1004.242493 764.912659,1005.748535 771.774841,1008.211243 
	C773.584106,1008.860596 776.044128,1012.160889 775.649414,1013.477844 
	C775.001221,1015.640686 772.509766,1018.316040 770.365051,1018.778503 
	C761.727600,1020.640869 757.107178,1018.030701 752.968262,1009.999512 
	C748.693237,1009.999512 744.364502,1009.999634 740.035767,1009.999634 
	C735.773132,1009.999634 731.510498,1009.999512 727.114868,1009.999512 
	C731.411804,1026.705200 737.012451,1033.544067 752.090698,1037.302490 
	C759.626831,1039.181030 767.919312,1039.547852 775.659119,1038.692505 
	C784.834045,1037.678345 793.282898,1033.548706 797.976685,1024.816040 
	C805.388062,1011.027161 799.862976,995.528992 783.258179,990.009644 
	C775.267517,987.353577 767.049072,985.339233 759.193726,982.350891 
	C757.287415,981.625671 755.211365,978.061890 755.441833,976.059937 
	C755.621216,974.502014 759.131531,972.515320 761.388672,972.159119 
	C768.577393,971.025085 774.331543,973.253906 776.327942,980.798340 
	C784.786987,980.798340 792.752930,980.798340 801.050049,980.798340 
	C800.652710,979.616394 800.191650,978.738037 800.072632,977.815552 
	C798.695740,967.141357 792.637329,959.822449 783.321350,955.161987 
	C774.053162,950.525452 764.030823,951.950806 753.496765,952.878845 
M745.000000,835.500000 
	C745.000000,850.249695 745.000000,864.999451 745.000000,879.599243 
	C754.419128,879.599243 763.139404,879.599243 771.739929,879.599243 
	C771.739929,842.277710 771.739929,805.357483 771.739929,768.312134 
	C762.760925,768.312134 754.044128,768.312134 745.000000,768.312134 
	C745.000000,790.581848 745.000000,812.540955 745.000000,835.500000 
M703.616577,981.834106 
	C708.581726,981.075012 713.546814,980.315979 718.735596,979.522644 
	C718.735596,970.505493 718.735596,961.436829 718.735596,952.204041 
	C707.507507,950.854309 700.357910,957.403076 692.785339,965.611877 
	C692.785339,960.562256 692.785339,956.862061 692.785339,953.264038 
	C683.618958,953.264038 675.019836,953.264038 666.307312,953.264038 
	C666.307312,981.573242 666.307312,1009.617432 666.307312,1037.638062 
	C675.338684,1037.638062 684.057983,1037.638062 693.000061,1037.638062 
	C693.000061,1024.464478 692.735840,1011.643860 693.104431,998.841492 
	C693.308228,991.761963 694.480652,984.659729 703.616577,981.834106 
z"/>
<path fill="#2F42FD" opacity="1.000000" stroke="none" 
	d="
M634.679688,206.711792 
	C649.304688,200.333023 664.097656,195.986053 679.704895,195.041306 
	C689.451538,194.451340 699.294067,193.441116 708.975464,194.175827 
	C732.296448,195.945587 754.305237,202.441452 774.792480,214.138412 
	C789.230347,222.381531 801.862976,232.678864 813.186279,244.706314 
	C826.655945,259.013611 836.932800,275.345795 844.029419,293.685638 
	C849.410095,307.591095 852.870789,321.860565 854.094543,336.801117 
	C857.316956,376.143005 847.802979,412.325958 825.546082,444.488922 
	C802.708130,477.491669 770.509155,497.489838 731.012573,504.899994 
	C718.490662,507.249298 705.579346,509.002197 692.900574,508.705902 
	C671.460449,508.204773 650.626038,503.727448 630.710510,495.060822 
	C609.318848,485.751862 591.265869,472.003143 576.284973,454.529022 
	C560.822632,436.493378 550.409668,415.436462 545.150757,392.209686 
	C542.636047,381.103333 541.109863,369.696930 540.099915,358.340698 
	C537.299072,326.848297 545.881592,298.024658 561.483704,270.914642 
	C569.529907,256.933685 579.692200,244.668076 591.646973,234.055008 
	C604.356812,222.771545 618.290771,213.089264 634.679688,206.711792 
M665.749268,217.085236 
	C654.210999,221.385559 642.271729,224.850174 631.215759,230.155533 
	C606.155396,242.181168 587.833862,261.495544 575.046814,286.015869 
	C565.901123,303.553619 560.857239,322.457764 559.150391,342.047638 
	C557.509521,360.880585 559.740356,379.573669 566.280457,397.353546 
	C574.458679,419.587067 587.035156,438.963531 605.102661,454.776703 
	C618.935913,466.883942 634.179077,476.129486 651.488037,482.210938 
	C671.485168,489.236938 691.858276,491.478760 712.984009,489.153351 
	C727.603760,487.544128 741.479126,483.621155 754.649048,477.570007 
	C775.513916,467.983337 792.987427,453.991547 807.048401,435.589874 
	C825.203308,411.830353 834.672180,384.908417 835.656494,355.401642 
	C836.064575,343.166962 833.563965,330.604950 830.834717,318.542816 
	C824.719849,291.517273 811.861511,268.210754 791.009949,249.340790 
	C775.294495,235.118805 757.424133,225.466003 737.199463,219.571396 
	C713.834778,212.761597 690.341980,212.253738 665.749268,217.085236 
z"/>
<path fill="#2F42FD" opacity="1.000000" stroke="none" 
	d="
M347.040558,569.622925 
	C346.411041,553.592346 348.292175,538.419800 353.650604,523.698730 
	C361.015930,503.463989 373.316681,486.949188 389.987671,473.386688 
	C403.542816,462.359070 418.821381,455.016968 435.711060,451.248108 
	C449.140686,448.251312 462.789032,448.332062 476.524689,449.857910 
	C489.879150,451.341431 502.428711,455.274353 514.013611,461.642487 
	C542.193848,477.132874 561.900269,499.885376 570.010376,531.449951 
	C572.592896,541.500977 574.943665,552.049011 574.695251,562.304077 
	C574.062256,588.439819 566.829224,612.989075 550.466125,633.818115 
	C533.920227,654.879761 512.054993,668.049744 485.608124,672.904358 
	C476.451813,674.585022 467.026703,676.103149 457.789062,675.789551 
	C432.422333,674.928284 409.049347,667.584167 388.928711,651.440552 
	C366.163879,633.175415 353.325775,609.329163 348.971771,580.671509 
	C348.433746,577.130066 347.708954,573.617004 347.040558,569.622925 
M462.385071,468.000031 
	C455.199249,468.697937 447.839844,468.637146 440.859650,470.234009 
	C418.693085,475.305084 399.807068,486.067078 385.974792,504.562408 
	C369.949951,525.989563 363.488220,550.359497 367.300415,576.582275 
	C370.548340,598.923767 380.967743,618.099609 398.510284,633.113159 
	C413.292572,645.764465 429.877625,653.602478 449.318451,656.160339 
	C468.013184,658.619934 485.451141,655.317200 502.176849,647.320557 
	C515.415100,640.991272 526.285706,631.671082 535.402039,620.157104 
	C546.652466,605.947632 553.343506,589.777771 554.836487,571.905457 
	C556.592529,550.884033 552.176147,530.932861 541.246338,512.608704 
	C530.606750,494.771301 515.624390,481.886139 496.099670,475.199646 
	C485.582245,471.597839 474.267151,470.325348 462.385071,468.000031 
z"/>
<path fill="#2F42FD" opacity="1.000000" stroke="none" 
	d="
M443.984680,1038.000000 
	C438.822601,1037.999878 434.148804,1037.822876 429.495789,1038.057739 
	C425.991333,1038.234619 424.545441,1037.354736 423.601044,1033.484009 
	C415.291565,999.426941 406.613129,965.459961 397.977112,931.201294 
	C407.587952,931.201294 416.879944,931.201294 426.721497,931.201294 
	C431.553650,955.731628 436.412445,980.397095 441.484131,1006.143311 
	C446.482269,985.503174 451.233948,965.867432 455.996155,946.234314 
	C456.531586,944.026917 457.103516,941.827637 457.698822,939.635559 
	C460.044281,930.998535 460.050201,930.999939 469.159943,931.000183 
	C474.824432,931.000366 480.501465,930.799133 486.144257,931.149475 
	C487.490601,931.233154 489.565491,932.955994 489.881378,934.267761 
	C495.054565,955.752747 499.996826,977.293213 504.998962,998.819458 
	C505.400909,1000.549133 505.860168,1002.265503 506.618378,1005.284546 
	C508.238373,997.954224 509.717377,991.805969 510.943939,985.607727 
	C514.355530,968.368286 517.613953,951.098389 521.121033,933.878845 
	C521.349731,932.755859 523.145935,931.162720 524.249573,931.132751 
	C532.713928,930.903137 541.187378,931.006653 550.306091,931.006653 
	C548.742859,937.813538 547.452881,944.134399 545.829773,950.368530 
	C540.634644,970.321655 535.278442,990.232849 530.063110,1010.180847 
	C527.925232,1018.357727 525.973206,1026.583618 523.969360,1034.795166 
	C523.374451,1037.232910 522.011536,1038.102905 519.421692,1038.060669 
	C509.930023,1037.905762 500.434326,1037.999268 490.528625,1037.999268 
	C485.222900,1015.975952 479.915863,993.947266 474.329468,970.758911 
	C472.729553,976.530457 471.297577,981.350342 470.061249,986.219910 
	C466.025421,1002.116028 461.834076,1017.979370 458.240753,1033.976196 
	C457.420502,1037.627930 455.973969,1038.168945 452.977020,1038.028076 
	C450.151123,1037.895264 447.314026,1037.999878 443.984680,1038.000000 
z"/>
<path fill="#2F42FD" opacity="1.000000" stroke="none" 
	d="
M680.155518,551.026123 
	C690.439880,547.044189 700.457458,544.332153 711.324890,543.825134 
	C738.825256,542.541992 761.631470,552.202393 779.687988,572.428772 
	C792.019104,586.241577 798.939209,602.686768 800.125732,621.588928 
	C801.536194,644.059082 795.880859,664.474976 782.195740,681.949219 
	C770.073120,697.428345 753.759644,707.369690 734.044739,711.006287 
	C702.015442,716.914490 674.132263,708.987061 651.781982,685.043396 
	C640.540466,673.000488 634.595337,657.927429 632.000977,641.624939 
	C629.659607,626.912354 630.674927,612.437073 636.067871,598.547302 
	C643.064819,580.526489 654.373413,565.860657 671.294128,555.944641 
	C674.106873,554.296265 676.941467,552.685181 680.155518,551.026123 
M658.916870,595.449890 
	C651.454041,609.767883 647.545166,625.006104 651.216553,640.878479 
	C658.208984,671.108215 679.517883,690.368652 710.368591,693.785522 
	C727.737732,695.709229 743.972412,690.340088 757.294495,678.978210 
	C781.431641,658.392334 788.057312,627.461304 773.992065,598.507202 
	C762.485718,574.820740 741.870300,564.665955 716.633972,563.157104 
	C705.624268,562.498962 694.979248,565.600891 685.025269,570.492615 
	C673.946716,575.936951 665.803406,584.588501 658.916870,595.449890 
z"/>
<path fill="#2F42FD" opacity="1.000000" stroke="none" 
	d="
M335.999573,843.000000 
	C335.999573,819.537842 335.999573,796.575623 335.999573,773.000061 
	C338.098663,773.000061 339.866882,773.000061 341.635101,773.000061 
	C357.628937,773.000000 373.623627,772.900208 389.616302,773.035522 
	C400.004517,773.123413 409.069641,776.969666 414.854462,785.629150 
	C421.612183,795.744812 420.936951,812.389587 409.977234,820.523132 
	C408.041931,821.959351 405.990997,823.239746 403.835022,824.699341 
	C410.074890,827.228821 415.503662,831.273804 418.718170,837.452271 
	C427.665771,854.650024 418.669281,874.340881 399.864807,878.895691 
	C396.715210,879.658569 393.380524,879.936218 390.128906,879.952576 
	C372.636566,880.040527 355.143463,879.976135 337.650604,879.953796 
	C337.333923,879.953369 337.017395,879.823120 335.999573,879.599304 
	C335.999573,867.673828 335.999573,855.586914 335.999573,843.000000 
M382.608398,858.096924 
	C389.972015,858.811279 393.954376,853.728760 394.929321,848.625061 
	C395.825409,843.934204 392.226044,837.644165 386.946136,836.692139 
	C379.157776,835.287903 371.140533,835.152832 363.280121,834.482422 
	C363.280121,843.418030 363.280121,851.015930 363.280121,858.609985 
	C369.663300,858.609985 375.765839,858.609985 382.608398,858.096924 
M375.255371,815.999878 
	C377.505890,815.665833 379.747101,815.234436 382.008820,815.017151 
	C387.430664,814.496155 391.029633,811.299805 391.939697,806.054260 
	C392.631927,802.064331 389.577942,796.523804 384.971161,795.683533 
	C377.842468,794.383362 370.516998,794.161743 363.242981,793.479736 
	C363.242981,801.693665 363.242981,808.616028 363.242981,816.000000 
	C367.085480,816.000000 370.699005,816.000000 375.255371,815.999878 
z"/>
<path fill="#2F42FD" opacity="1.000000" stroke="none" 
	d="
M642.000122,796.000000 
	C642.000122,786.534180 642.000122,777.568298 642.000122,768.302979 
	C651.064453,768.302979 659.781860,768.302979 668.884277,768.302979 
	C668.884277,780.034180 668.884277,791.616211 668.884277,803.739075 
	C671.997498,801.579102 674.469788,799.521790 677.236389,797.999512 
	C695.883667,787.738403 720.900085,795.929626 728.065674,817.832764 
	C732.393677,831.062134 732.669800,844.263916 727.950256,857.329590 
	C723.303955,870.192383 711.689392,881.330200 695.433350,881.167786 
	C685.419922,881.067749 676.645569,879.155823 669.248779,870.726807 
	C669.248779,874.132446 669.248779,876.687500 669.248779,879.620850 
	C660.133301,879.620850 651.410889,879.620850 642.000122,879.620850 
	C642.000122,851.989075 642.000122,824.244568 642.000122,796.000000 
M690.445251,817.816284 
	C683.401794,815.809204 675.690369,819.059265 671.913086,825.161804 
	C668.564453,830.571777 668.502625,836.471985 669.114258,842.310303 
	C670.208862,852.759155 680.996033,860.219849 690.179443,857.336609 
	C698.586426,854.697083 703.796448,848.371704 703.998901,840.558533 
	C704.345642,827.177612 701.408142,821.972839 690.445251,817.816284 
z"/>
<path fill="#2F42FD" opacity="1.000000" stroke="none" 
	d="
M539.000122,852.000000 
	C539.000122,823.874634 539.000122,796.249329 539.000122,768.312744 
	C548.044006,768.312744 556.761414,768.312744 565.861816,768.312744 
	C565.861816,780.016541 565.861816,791.602234 565.861816,803.750793 
	C568.978638,801.584656 571.445435,799.524536 574.209534,798.005066 
	C592.842346,787.762329 617.849243,795.865967 625.058838,817.806580 
	C629.403625,831.028564 629.662109,844.231689 624.956421,857.303406 
	C620.307312,870.218201 608.640076,881.332642 592.460815,881.165039 
	C582.451904,881.061340 573.656921,879.186829 566.254272,870.712830 
	C566.096313,874.115173 565.977966,876.665466 565.841370,879.607300 
	C557.144165,879.607300 548.426147,879.607300 539.000122,879.607300 
	C539.000122,870.676880 539.000122,861.588440 539.000122,852.000000 
M586.800110,817.294250 
	C576.336853,816.324585 569.828369,820.443787 566.957458,830.579773 
	C565.952454,834.128113 565.864868,838.080750 566.091553,841.804138 
	C566.601318,850.176392 574.587280,857.840027 582.458069,857.999023 
	C591.506165,858.181702 600.012207,851.265015 600.910156,842.348083 
	C602.176453,829.772705 598.708801,820.574707 586.800110,817.294250 
z"/>
<path fill="#2F42FD" opacity="1.000000" stroke="none" 
	d="
M647.999084,1033.822998 
	C648.145386,1036.447876 648.129395,1038.135132 645.029602,1038.059692 
	C637.228149,1037.869873 629.419006,1037.996826 621.186768,1037.996826 
	C621.186768,1034.791016 621.186768,1031.887939 621.186768,1028.389160 
	C614.635071,1034.473389 608.070801,1038.765381 599.377502,1039.077026 
	C590.990173,1039.377686 582.671692,1038.958740 575.833252,1033.842285 
	C567.674805,1027.738159 561.841064,1019.864868 559.625122,1009.394104 
	C556.854431,996.302490 557.071411,983.566772 563.241760,971.623474 
	C569.787354,958.953918 580.109070,952.045227 595.022766,951.819824 
	C605.264404,951.665100 613.458313,954.914795 620.888062,962.318054 
	C620.888062,959.249634 620.888062,956.384827 620.888062,953.271729 
	C629.962524,953.271729 638.573914,953.271729 647.999329,953.271729 
	C647.999329,979.873047 647.999329,1006.607422 647.999084,1033.822998 
M585.011719,993.749878 
	C585.860718,997.856689 585.829285,1002.431885 587.719543,1005.984802 
	C594.043091,1017.870544 607.170471,1019.794189 615.719177,1010.238708 
	C623.092834,1001.996460 623.138123,990.957581 616.481262,981.786255 
	C610.768921,973.916260 598.575623,972.908325 592.041687,979.256775 
	C588.013550,983.170349 586.221985,987.745361 585.011719,993.749878 
z"/>
<path fill="#2F42FD" opacity="1.000000" stroke="none" 
	d="
M460.821686,384.970734 
	C439.477386,392.355438 419.574524,391.101532 401.639496,377.049957 
	C388.488312,366.746399 382.742249,352.619843 381.973328,336.166473 
	C381.371216,323.283569 384.440552,311.335205 392.092712,301.078583 
	C402.191925,287.541931 415.823517,279.869781 433.009338,278.968903 
	C446.099060,278.282806 458.377075,280.360199 469.520325,287.810913 
	C484.301575,297.694061 491.539551,311.638702 493.051270,329.106171 
	C494.592773,346.918365 489.362427,362.294067 476.584167,374.655975 
	C472.225220,378.872925 466.380493,381.554108 460.821686,384.970734 
M472.110016,322.499725 
	C468.238922,308.272278 453.422302,298.001831 436.771881,297.999786 
	C414.388306,297.997040 395.449829,320.494476 402.508575,343.892090 
	C406.849396,358.280670 417.184967,367.296570 431.739746,369.753387 
	C446.628937,372.266632 459.070160,366.580597 467.954437,354.083038 
	C474.696259,344.599304 475.369598,334.107941 472.110016,322.499725 
z"/>
<path fill="#2F42FD" opacity="1.000000" stroke="none" 
	d="
M463.835632,841.973328 
	C464.039795,847.516602 465.205048,852.490662 470.312042,855.883118 
	C475.382111,859.251099 480.905518,859.023560 485.768616,856.842102 
	C491.051788,854.472229 494.010498,849.551208 494.003967,843.353699 
	C493.989105,829.231384 493.999451,815.109009 493.999573,800.986694 
	C493.999573,799.186768 493.999573,797.386841 493.999573,795.026917 
	C502.921448,795.026917 511.500000,795.026917 520.541748,795.554749 
	C521.005859,823.999573 521.006775,851.916565 521.007690,879.833557 
	C512.207642,879.833557 503.407562,879.833557 494.229950,879.833557 
	C494.083679,877.015442 493.944275,874.329895 493.755066,870.684814 
	C485.120117,880.513000 474.417816,882.093323 463.125610,880.923340 
	C451.859833,879.755920 441.362457,871.827332 438.150665,858.554443 
	C436.739044,852.720703 436.205597,846.569641 436.092194,840.547241 
	C435.810486,825.584656 435.999542,810.613159 435.999542,795.026855 
	C444.888092,795.026855 453.483246,795.026855 462.541504,795.554688 
	C463.003174,809.278809 462.965179,822.475403 463.037659,835.671387 
	C463.049194,837.773438 463.557159,839.872742 463.835632,841.973328 
z"/>
<path fill="#2F42FD" opacity="1.000000" stroke="none" 
	d="
M800.242554,872.756470 
	C792.543945,867.931885 788.325928,860.611511 786.574646,852.743225 
	C783.587891,839.324158 783.159119,825.636108 790.486511,813.034729 
	C797.442566,801.071777 808.221741,795.062622 821.755859,794.067505 
	C831.647400,793.340271 841.495117,793.696167 850.389587,799.102051 
	C860.719543,805.380310 867.131226,814.345581 868.959961,826.365723 
	C869.526428,830.088623 869.700378,833.873962 869.990540,837.635559 
	C870.289368,841.509338 868.780579,843.143250 864.571228,843.086548 
	C848.578857,842.871155 832.581909,842.999756 816.586670,842.999817 
	C814.803040,842.999817 813.019348,842.999817 811.191101,842.999817 
	C812.135376,852.584595 817.857788,860.743652 828.391113,858.834045 
	C831.573425,858.257080 834.770386,856.182495 837.287598,854.013000 
	C839.315552,852.265259 840.730469,850.754456 843.797241,850.892212 
	C851.446533,851.235840 859.120483,851.027710 866.784485,851.061462 
	C867.081604,851.062744 867.377869,851.274963 867.673218,851.392334 
	C860.579956,883.637451 820.560974,888.349487 800.242554,872.756470 
M811.937073,827.300415 
	C812.140625,827.858521 812.340088,828.903076 812.548157,828.904724 
	C822.303162,828.984985 832.058838,828.974670 843.179382,828.974670 
	C841.595276,825.619385 840.945740,822.812073 839.264160,820.924011 
	C831.002808,811.648987 817.066223,814.604614 811.937073,827.300415 
z"/>
<path fill="#2F42FD" opacity="1.000000" stroke="none" 
	d="
M753.841431,952.599060 
	C764.030823,951.950806 774.053162,950.525452 783.321350,955.161987 
	C792.637329,959.822449 798.695740,967.141357 800.072632,977.815552 
	C800.191650,978.738037 800.652710,979.616394 801.050049,980.798340 
	C792.752930,980.798340 784.786987,980.798340 776.327942,980.798340 
	C774.331543,973.253906 768.577393,971.025085 761.388672,972.159119 
	C759.131531,972.515320 755.621216,974.502014 755.441833,976.059937 
	C755.211365,978.061890 757.287415,981.625671 759.193726,982.350891 
	C767.049072,985.339233 775.267517,987.353577 783.258179,990.009644 
	C799.862976,995.528992 805.388062,1011.027161 797.976685,1024.816040 
	C793.282898,1033.548706 784.834045,1037.678345 775.659119,1038.692505 
	C767.919312,1039.547852 759.626831,1039.181030 752.090698,1037.302490 
	C737.012451,1033.544067 731.411804,1026.705200 727.114868,1009.999512 
	C731.510498,1009.999512 735.773132,1009.999634 740.035767,1009.999634 
	C744.364502,1009.999634 748.693237,1009.999512 752.968262,1009.999512 
	C757.107178,1018.030701 761.727600,1020.640869 770.365051,1018.778503 
	C772.509766,1018.316040 775.001221,1015.640686 775.649414,1013.477844 
	C776.044128,1012.160889 773.584106,1008.860596 771.774841,1008.211243 
	C764.912659,1005.748535 757.712952,1004.242493 750.790710,1001.926819 
	C743.087646,999.349792 735.371948,996.669189 731.919617,988.031921 
	C725.856750,972.862854 734.222290,959.097778 748.268677,954.045715 
	C749.935608,953.446228 751.750488,953.257812 753.841431,952.599060 
z"/>
<path fill="#2F42FD" opacity="1.000000" stroke="none" 
	d="
M745.000000,835.000000 
	C745.000000,812.540955 745.000000,790.581848 745.000000,768.312134 
	C754.044128,768.312134 762.760925,768.312134 771.739929,768.312134 
	C771.739929,805.357483 771.739929,842.277710 771.739929,879.599243 
	C763.139404,879.599243 754.419128,879.599243 745.000000,879.599243 
	C745.000000,864.999451 745.000000,850.249695 745.000000,835.000000 
z"/>
<path fill="#2F42FD" opacity="1.000000" stroke="none" 
	d="
M703.211182,981.908447 
	C694.480652,984.659729 693.308228,991.761963 693.104431,998.841492 
	C692.735840,1011.643860 693.000061,1024.464478 693.000061,1037.638062 
	C684.057983,1037.638062 675.338684,1037.638062 666.307312,1037.638062 
	C666.307312,1009.617432 666.307312,981.573242 666.307312,953.264038 
	C675.019836,953.264038 683.618958,953.264038 692.785339,953.264038 
	C692.785339,956.862061 692.785339,960.562256 692.785339,965.611877 
	C700.357910,957.403076 707.507507,950.854309 718.735596,952.204041 
	C718.735596,961.436829 718.735596,970.505493 718.735596,979.522644 
	C713.546814,980.315979 708.581726,981.075012 703.211182,981.908447 
z"/>
<path fill="#4060FF" opacity="1.000000" stroke="none" 
	d="
M521.409302,879.678833 
	C521.006775,851.916565 521.005859,823.999573 521.006348,795.624512 
	C521.336304,795.810242 521.952209,796.454163 521.951904,797.097839 
	C521.939209,824.573303 521.871765,852.048706 521.409302,879.678833 
z"/>
<path fill="#4060FF" opacity="1.000000" stroke="none" 
	d="
M463.903687,841.510864 
	C463.557159,839.872742 463.049194,837.773438 463.037659,835.671387 
	C462.965179,822.475403 463.003174,809.278809 463.006073,795.624390 
	C463.338379,796.475586 463.951111,797.783691 463.956757,799.094421 
	C464.017059,813.078857 463.981232,827.063660 463.903687,841.510864 
z"/>
<path fill="#000000" opacity="1.000000" stroke="none" 
	d="
M666.178833,217.048355 
	C690.341980,212.253738 713.834778,212.761597 737.199463,219.571396 
	C757.424133,225.466003 775.294495,235.118805 791.009949,249.340790 
	C811.861511,268.210754 824.719849,291.517273 830.834717,318.542816 
	C833.563965,330.604950 836.064575,343.166962 835.656494,355.401642 
	C834.672180,384.908417 825.203308,411.830353 807.048401,435.589874 
	C792.987427,453.991547 775.513916,467.983337 754.649048,477.570007 
	C741.479126,483.621155 727.603760,487.544128 712.984009,489.153351 
	C691.858276,491.478760 671.485168,489.236938 651.488037,482.210938 
	C634.179077,476.129486 618.935913,466.883942 605.102661,454.776703 
	C587.035156,438.963531 574.458679,419.587067 566.280457,397.353546 
	C559.740356,379.573669 557.509521,360.880585 559.150391,342.047638 
	C560.857239,322.457764 565.901123,303.553619 575.046814,286.015869 
	C587.833862,261.495544 606.155396,242.181168 631.215759,230.155533 
	C642.271729,224.850174 654.210999,221.385559 666.178833,217.048355 
M783.001038,266.499725 
	C780.163635,263.992493 777.379150,261.422302 774.480530,258.987976 
	C752.349670,240.402084 726.832153,231.046387 697.919861,231.003952 
	C691.462952,230.994476 688.031555,234.195984 688.000000,240.202271 
	C687.966980,246.483612 691.584839,249.834427 698.217590,250.037643 
	C702.986694,250.183762 707.827515,250.241592 712.493347,251.108597 
	C731.038574,254.554703 748.115051,261.642914 762.430603,274.075592 
	C785.944763,294.496887 797.932068,320.601410 798.978882,351.708740 
	C799.170837,357.411499 802.423340,360.969330 807.838806,360.999573 
	C814.025208,361.034119 818.180054,357.428192 817.916260,351.497253 
	C817.617981,344.789734 816.908691,338.078430 815.976868,331.425018 
	C812.457214,306.296295 800.813049,285.208801 783.001038,266.499725 
z"/>
<path fill="#000000" opacity="1.000000" stroke="none" 
	d="
M462.848511,468.000977 
	C474.267151,470.325348 485.582245,471.597839 496.099670,475.199646 
	C515.624390,481.886139 530.606750,494.771301 541.246338,512.608704 
	C552.176147,530.932861 556.592529,550.884033 554.836487,571.905457 
	C553.343506,589.777771 546.652466,605.947632 535.402039,620.157104 
	C526.285706,631.671082 515.415100,640.991272 502.176849,647.320557 
	C485.451141,655.317200 468.013184,658.619934 449.318451,656.160339 
	C429.877625,653.602478 413.292572,645.764465 398.510284,633.113159 
	C380.967743,618.099609 370.548340,598.923767 367.300415,576.582275 
	C363.488220,550.359497 369.949951,525.989563 385.974792,504.562408 
	C399.807068,486.067078 418.693085,475.305084 440.859650,470.234009 
	C447.839844,468.637146 455.199249,468.697937 462.848511,468.000977 
M397.475281,605.983459 
	C399.538239,608.715820 401.349731,611.689758 403.704956,614.141357 
	C419.135986,630.204041 437.696289,639.265747 460.330261,639.006958 
	C466.509460,638.936340 469.986084,635.762390 469.999695,630.053833 
	C470.014282,623.957581 466.341339,620.289062 460.410248,619.942688 
	C456.186615,619.696045 451.881592,619.350342 447.806274,618.299133 
	C420.687531,611.304138 404.597778,589.912781 403.008423,562.663269 
	C402.647644,556.478149 398.928101,552.827942 393.016571,553.000366 
	C387.580750,553.158936 383.971161,557.117676 384.015656,563.114014 
	C384.129913,578.500549 388.508179,592.604797 397.475281,605.983459 
z"/>
<path fill="#000000" opacity="1.000000" stroke="none" 
	d="
M658.988098,595.080505 
	C665.803406,584.588501 673.946716,575.936951 685.025269,570.492615 
	C694.979248,565.600891 705.624268,562.498962 716.633972,563.157104 
	C741.870300,564.665955 762.485718,574.820740 773.992065,598.507202 
	C788.057312,627.461304 781.431641,658.392334 757.294495,678.978210 
	C743.972412,690.340088 727.737732,695.709229 710.368591,693.785522 
	C679.517883,690.368652 658.208984,671.108215 651.216553,640.878479 
	C647.545166,625.006104 651.454041,609.767883 658.988098,595.080505 
z"/>
<path fill="#000000" opacity="1.000000" stroke="none" 
	d="
M382.238373,858.353455 
	C375.765839,858.609985 369.663300,858.609985 363.280121,858.609985 
	C363.280121,851.015930 363.280121,843.418030 363.280121,834.482422 
	C371.140533,835.152832 379.157776,835.287903 386.946136,836.692139 
	C392.226044,837.644165 395.825409,843.934204 394.929321,848.625061 
	C393.954376,853.728760 389.972015,858.811279 382.238373,858.353455 
z"/>
<path fill="#000000" opacity="1.000000" stroke="none" 
	d="
M374.783966,815.999939 
	C370.699005,816.000000 367.085480,816.000000 363.242981,816.000000 
	C363.242981,808.616028 363.242981,801.693665 363.242981,793.479736 
	C370.516998,794.161743 377.842468,794.383362 384.971161,795.683533 
	C389.577942,796.523804 392.631927,802.064331 391.939697,806.054260 
	C391.029633,811.299805 387.430664,814.496155 382.008820,815.017151 
	C379.747101,815.234436 377.505890,815.665833 374.783966,815.999939 
z"/>
<path fill="#000000" opacity="1.000000" stroke="none" 
	d="
M690.848267,817.893799 
	C701.408142,821.972839 704.345642,827.177612 703.998901,840.558533 
	C703.796448,848.371704 698.586426,854.697083 690.179443,857.336609 
	C680.996033,860.219849 670.208862,852.759155 669.114258,842.310303 
	C668.502625,836.471985 668.564453,830.571777 671.913086,825.161804 
	C675.690369,819.059265 683.401794,815.809204 690.848267,817.893799 
z"/>
<path fill="#000000" opacity="1.000000" stroke="none" 
	d="
M587.124023,817.556030 
	C598.708801,820.574707 602.176453,829.772705 600.910156,842.348083 
	C600.012207,851.265015 591.506165,858.181702 582.458069,857.999023 
	C574.587280,857.840027 566.601318,850.176392 566.091553,841.804138 
	C565.864868,838.080750 565.952454,834.128113 566.957458,830.579773 
	C569.828369,820.443787 576.336853,816.324585 587.124023,817.556030 
z"/>
<path fill="#000000" opacity="1.000000" stroke="none" 
	d="
M585.041138,993.316772 
	C586.221985,987.745361 588.013550,983.170349 592.041687,979.256775 
	C598.575623,972.908325 610.768921,973.916260 616.481262,981.786255 
	C623.138123,990.957581 623.092834,1001.996460 615.719177,1010.238708 
	C607.170471,1019.794189 594.043091,1017.870544 587.719543,1005.984802 
	C585.829285,1002.431885 585.860718,997.856689 585.041138,993.316772 
z"/>
<path fill="#000000" opacity="1.000000" stroke="none" 
	d="
M472.370422,322.822388 
	C475.369598,334.107941 474.696259,344.599304 467.954437,354.083038 
	C459.070160,366.580597 446.628937,372.266632 431.739746,369.753387 
	C417.184967,367.296570 406.849396,358.280670 402.508575,343.892090 
	C395.449829,320.494476 414.388306,297.997040 436.771881,297.999786 
	C453.422302,298.001831 468.238922,308.272278 472.370422,322.822388 
z"/>
<path fill="#000000" opacity="1.000000" stroke="none" 
	d="
M811.968994,826.910889 
	C817.066223,814.604614 831.002808,811.648987 839.264160,820.924011 
	C840.945740,822.812073 841.595276,825.619385 843.179382,828.974670 
	C832.058838,828.974670 822.303162,828.984985 812.548157,828.904724 
	C812.340088,828.903076 812.140625,827.858521 811.968994,826.910889 
z"/>
<path fill="#2F42FD" opacity="1.000000" stroke="none" 
	d="
M783.253113,266.750916 
	C800.813049,285.208801 812.457214,306.296295 815.976868,331.425018 
	C816.908691,338.078430 817.617981,344.789734 817.916260,351.497253 
	C818.180054,357.428192 814.025208,361.034119 807.838806,360.999573 
	C802.423340,360.969330 799.170837,357.411499 798.978882,351.708740 
	C797.932068,320.601410 785.944763,294.496887 762.430603,274.075592 
	C748.115051,261.642914 731.038574,254.554703 712.493347,251.108597 
	C707.827515,250.241592 702.986694,250.183762 698.217590,250.037643 
	C691.584839,249.834427 687.966980,246.483612 688.000000,240.202271 
	C688.031555,234.195984 691.462952,230.994476 697.919861,231.003952 
	C726.832153,231.046387 752.349670,240.402084 774.480530,258.987976 
	C777.379150,261.422302 780.163635,263.992493 783.253113,266.750916 
z"/>
<path fill="#2F42FD" opacity="1.000000" stroke="none" 
	d="
M397.220276,605.716980 
	C388.508179,592.604797 384.129913,578.500549 384.015656,563.114014 
	C383.971161,557.117676 387.580750,553.158936 393.016571,553.000366 
	C398.928101,552.827942 402.647644,556.478149 403.008423,562.663269 
	C404.597778,589.912781 420.687531,611.304138 447.806274,618.299133 
	C451.881592,619.350342 456.186615,619.696045 460.410248,619.942688 
	C466.341339,620.289062 470.014282,623.957581 469.999695,630.053833 
	C469.986084,635.762390 466.509460,638.936340 460.330261,639.006958 
	C437.696289,639.265747 419.135986,630.204041 403.704956,614.141357 
	C401.349731,611.689758 399.538239,608.715820 397.220276,605.716980 
z"/>
</svg>